<svg width="202" height="50" viewBox="0 0 202 50" fill="none" xmlns="http://www.w3.org/2000/svg">
<path d="M72.608 8.54545H75.7443V20.8182C75.7386 21.9432 75.5 22.9119 75.0284 23.7244C74.5568 24.5312 73.8977 25.1534 73.0511 25.5909C72.2102 26.0227 71.2301 26.2386 70.1108 26.2386C69.0881 26.2386 68.1676 26.0568 67.3494 25.6932C66.5369 25.3239 65.892 24.7784 65.4148 24.0568C64.9375 23.3352 64.6989 22.4375 64.6989 21.3636H67.8438C67.8494 21.8352 67.9517 22.2415 68.1506 22.5824C68.3551 22.9233 68.6364 23.1847 68.9943 23.3665C69.3523 23.5483 69.7642 23.6392 70.2301 23.6392C70.7358 23.6392 71.1648 23.5341 71.517 23.3239C71.8693 23.108 72.1364 22.7898 72.3182 22.3693C72.5057 21.9489 72.6023 21.4318 72.608 20.8182V8.54545ZM88.6605 13.3438C88.581 12.5994 88.2457 12.0199 87.6548 11.6051C87.0696 11.1903 86.3082 10.983 85.3707 10.983C84.7116 10.983 84.1463 11.0824 83.6747 11.2812C83.2031 11.4801 82.8423 11.75 82.5923 12.0909C82.3423 12.4318 82.2145 12.821 82.2088 13.2585C82.2088 13.6222 82.2912 13.9375 82.456 14.2045C82.6264 14.4716 82.8565 14.6989 83.1463 14.8864C83.4361 15.0682 83.7571 15.2216 84.1094 15.3466C84.4616 15.4716 84.8168 15.5767 85.1747 15.6619L86.8111 16.071C87.4702 16.2244 88.1037 16.4318 88.7116 16.6932C89.3253 16.9545 89.8736 17.2841 90.3565 17.6818C90.8452 18.0795 91.2315 18.5597 91.5156 19.1222C91.7997 19.6847 91.9418 20.3437 91.9418 21.0994C91.9418 22.1222 91.6804 23.0227 91.1577 23.8011C90.6349 24.5739 89.8793 25.179 88.8906 25.6165C87.9077 26.0483 86.7173 26.2642 85.3196 26.2642C83.9616 26.2642 82.7827 26.054 81.7827 25.6335C80.7884 25.2131 80.0099 24.5994 79.4474 23.7926C78.8906 22.9858 78.5895 22.0028 78.544 20.8438H81.6548C81.7003 21.4517 81.8878 21.9574 82.2173 22.3608C82.5469 22.7642 82.9759 23.0653 83.5043 23.2642C84.0384 23.4631 84.6349 23.5625 85.294 23.5625C85.9815 23.5625 86.5838 23.4602 87.1009 23.2557C87.6236 23.0455 88.0327 22.7557 88.3281 22.3864C88.6236 22.0114 88.7741 21.5739 88.7798 21.0739C88.7741 20.6193 88.6406 20.2443 88.3793 19.9489C88.1179 19.6477 87.7514 19.3977 87.2798 19.1989C86.8139 18.9943 86.2685 18.8125 85.6435 18.6534L83.6577 18.142C82.2202 17.7727 81.0838 17.2131 80.2486 16.4631C79.419 15.7074 79.0043 14.7045 79.0043 13.4545C79.0043 12.4261 79.2827 11.5256 79.8395 10.7528C80.402 9.98011 81.1662 9.38068 82.1321 8.95454C83.098 8.52273 84.1918 8.30682 85.4134 8.30682C86.652 8.30682 87.7372 8.52273 88.669 8.95454C89.6065 9.38068 90.3423 9.97443 90.8764 10.7358C91.4105 11.4915 91.6861 12.3608 91.7031 13.3438H88.6605ZM110.2 13.3438C110.12 12.5994 109.785 12.0199 109.194 11.6051C108.609 11.1903 107.847 10.983 106.91 10.983C106.251 10.983 105.685 11.0824 105.214 11.2812C104.742 11.4801 104.381 11.75 104.131 12.0909C103.881 12.4318 103.754 12.821 103.748 13.2585C103.748 13.6222 103.83 13.9375 103.995 14.2045C104.165 14.4716 104.396 14.6989 104.685 14.8864C104.975 15.0682 105.296 15.2216 105.648 15.3466C106.001 15.4716 106.356 15.5767 106.714 15.6619L108.35 16.071C109.009 16.2244 109.643 16.4318 110.251 16.6932C110.864 16.9545 111.413 17.2841 111.896 17.6818C112.384 18.0795 112.771 18.5597 113.055 19.1222C113.339 19.6847 113.481 20.3437 113.481 21.0994C113.481 22.1222 113.219 23.0227 112.697 23.8011C112.174 24.5739 111.418 25.179 110.43 25.6165C109.447 26.0483 108.256 26.2642 106.859 26.2642C105.501 26.2642 104.322 26.054 103.322 25.6335C102.327 25.2131 101.549 24.5994 100.987 23.7926C100.43 22.9858 100.129 22.0028 100.083 20.8438H103.194C103.239 21.4517 103.427 21.9574 103.756 22.3608C104.086 22.7642 104.515 23.0653 105.043 23.2642C105.577 23.4631 106.174 23.5625 106.833 23.5625C107.521 23.5625 108.123 23.4602 108.64 23.2557C109.163 23.0455 109.572 22.7557 109.867 22.3864C110.163 22.0114 110.313 21.5739 110.319 21.0739C110.313 20.6193 110.18 20.2443 109.918 19.9489C109.657 19.6477 109.29 19.3977 108.819 19.1989C108.353 18.9943 107.808 18.8125 107.183 18.6534L105.197 18.142C103.759 17.7727 102.623 17.2131 101.788 16.4631C100.958 15.7074 100.543 14.7045 100.543 13.4545C100.543 12.4261 100.822 11.5256 101.379 10.7528C101.941 9.98011 102.705 9.38068 103.671 8.95454C104.637 8.52273 105.731 8.30682 106.952 8.30682C108.191 8.30682 109.276 8.52273 110.208 8.95454C111.146 9.38068 111.881 9.97443 112.415 10.7358C112.95 11.4915 113.225 12.3608 113.242 13.3438H110.2ZM119.249 18.3295V26H116.163V8.54545H119.18V15.1335H119.334C119.641 14.3949 120.115 13.8125 120.757 13.3864C121.405 12.9545 122.229 12.7386 123.229 12.7386C124.138 12.7386 124.93 12.929 125.607 13.3097C126.283 13.6903 126.805 14.2472 127.175 14.9801C127.55 15.7131 127.737 16.608 127.737 17.6648V26H124.652V18.142C124.652 17.2614 124.425 16.5767 123.97 16.0881C123.521 15.5937 122.891 15.3466 122.078 15.3466C121.533 15.3466 121.044 15.4659 120.612 15.7045C120.186 15.9375 119.851 16.2756 119.607 16.7188C119.368 17.1619 119.249 17.6989 119.249 18.3295ZM130.882 26V12.9091H133.967V26H130.882ZM132.433 11.0511C131.945 11.0511 131.524 10.8892 131.172 10.5653C130.82 10.2358 130.643 9.84091 130.643 9.38068C130.643 8.91477 130.82 8.51989 131.172 8.19602C131.524 7.86648 131.945 7.7017 132.433 7.7017C132.928 7.7017 133.348 7.86648 133.695 8.19602C134.047 8.51989 134.223 8.91477 134.223 9.38068C134.223 9.84091 134.047 10.2358 133.695 10.5653C133.348 10.8892 132.928 11.0511 132.433 11.0511ZM137.14 30.9091V12.9091H140.174V15.0739H140.353C140.512 14.7557 140.737 14.4176 141.026 14.0597C141.316 13.696 141.708 13.3864 142.202 13.1307C142.697 12.8693 143.327 12.7386 144.094 12.7386C145.106 12.7386 146.018 12.9972 146.83 13.5142C147.648 14.0256 148.296 14.7841 148.773 15.7898C149.256 16.7898 149.498 18.017 149.498 19.4716C149.498 20.9091 149.262 22.1307 148.79 23.1364C148.319 24.142 147.677 24.9091 146.864 25.4375C146.052 25.9659 145.131 26.2301 144.103 26.2301C143.353 26.2301 142.731 26.1051 142.237 25.8551C141.742 25.6051 141.344 25.304 141.043 24.9517C140.748 24.5937 140.518 24.2557 140.353 23.9375H140.225V30.9091H137.14ZM140.165 19.4545C140.165 20.3011 140.285 21.0426 140.523 21.679C140.768 22.3153 141.117 22.8125 141.572 23.1705C142.032 23.5227 142.589 23.6989 143.242 23.6989C143.924 23.6989 144.495 23.517 144.955 23.1534C145.415 22.7841 145.762 22.2812 145.995 21.6449C146.234 21.0028 146.353 20.2727 146.353 19.4545C146.353 18.642 146.237 17.9205 146.004 17.2898C145.771 16.6591 145.424 16.1648 144.964 15.8068C144.504 15.4489 143.93 15.2699 143.242 15.2699C142.583 15.2699 142.023 15.4432 141.563 15.7898C141.103 16.1364 140.754 16.6222 140.515 17.2472C140.282 17.8722 140.165 18.608 140.165 19.4545ZM152.14 30.9091V12.9091H155.174V15.0739H155.353C155.512 14.7557 155.737 14.4176 156.026 14.0597C156.316 13.696 156.708 13.3864 157.202 13.1307C157.697 12.8693 158.327 12.7386 159.094 12.7386C160.106 12.7386 161.018 12.9972 161.83 13.5142C162.648 14.0256 163.296 14.7841 163.773 15.7898C164.256 16.7898 164.498 18.017 164.498 19.4716C164.498 20.9091 164.262 22.1307 163.79 23.1364C163.319 24.142 162.677 24.9091 161.864 25.4375C161.052 25.9659 160.131 26.2301 159.103 26.2301C158.353 26.2301 157.731 26.1051 157.237 25.8551C156.742 25.6051 156.344 25.304 156.043 24.9517C155.748 24.5937 155.518 24.2557 155.353 23.9375H155.225V30.9091H152.14ZM155.165 19.4545C155.165 20.3011 155.285 21.0426 155.523 21.679C155.768 22.3153 156.117 22.8125 156.572 23.1705C157.032 23.5227 157.589 23.6989 158.242 23.6989C158.924 23.6989 159.495 23.517 159.955 23.1534C160.415 22.7841 160.762 22.2812 160.995 21.6449C161.234 21.0028 161.353 20.2727 161.353 19.4545C161.353 18.642 161.237 17.9205 161.004 17.2898C160.771 16.6591 160.424 16.1648 159.964 15.8068C159.504 15.4489 158.93 15.2699 158.242 15.2699C157.583 15.2699 157.023 15.4432 156.563 15.7898C156.103 16.1364 155.754 16.6222 155.515 17.2472C155.282 17.8722 155.165 18.608 155.165 19.4545ZM167.14 26V12.9091H170.225V26H167.14ZM168.691 11.0511C168.202 11.0511 167.782 10.8892 167.43 10.5653C167.077 10.2358 166.901 9.84091 166.901 9.38068C166.901 8.91477 167.077 8.51989 167.43 8.19602C167.782 7.86648 168.202 7.7017 168.691 7.7017C169.185 7.7017 169.606 7.86648 169.952 8.19602C170.305 8.51989 170.481 8.91477 170.481 9.38068C170.481 9.84091 170.305 10.2358 169.952 10.5653C169.606 10.8892 169.185 11.0511 168.691 11.0511ZM176.483 18.3295V26H173.398V12.9091H176.347V15.1335H176.5C176.801 14.4006 177.281 13.8182 177.94 13.3864C178.605 12.9545 179.426 12.7386 180.403 12.7386C181.307 12.7386 182.094 12.9318 182.764 13.3182C183.44 13.7045 183.963 14.2642 184.332 14.9972C184.707 15.7301 184.892 16.6193 184.886 17.6648V26H181.801V18.142C181.801 17.267 181.574 16.5824 181.119 16.0881C180.67 15.5937 180.048 15.3466 179.253 15.3466C178.713 15.3466 178.233 15.4659 177.812 15.7045C177.398 15.9375 177.071 16.2756 176.832 16.7188C176.599 17.1619 176.483 17.6989 176.483 18.3295ZM193.716 31.1818C192.608 31.1818 191.656 31.0313 190.861 30.7301C190.065 30.4347 189.426 30.0369 188.943 29.5369C188.46 29.0369 188.125 28.483 187.938 27.875L190.716 27.2017C190.841 27.4574 191.023 27.7102 191.261 27.9602C191.5 28.2159 191.821 28.4261 192.224 28.5909C192.634 28.7614 193.148 28.8466 193.767 28.8466C194.642 28.8466 195.366 28.6335 195.94 28.2074C196.514 27.7869 196.801 27.0938 196.801 26.1278V23.6477H196.648C196.489 23.9659 196.256 24.2926 195.949 24.6278C195.648 24.9631 195.247 25.2443 194.747 25.4716C194.253 25.6989 193.631 25.8125 192.881 25.8125C191.875 25.8125 190.963 25.5767 190.145 25.1051C189.332 24.6278 188.685 23.9176 188.202 22.9744C187.724 22.0256 187.486 20.8381 187.486 19.4119C187.486 17.9744 187.724 16.7614 188.202 15.7727C188.685 14.7784 189.335 14.0256 190.153 13.5142C190.972 12.9972 191.884 12.7386 192.889 12.7386C193.656 12.7386 194.287 12.8693 194.781 13.1307C195.281 13.3864 195.679 13.696 195.974 14.0597C196.27 14.4176 196.494 14.7557 196.648 15.0739H196.818V12.9091H199.861V26.2131C199.861 27.3324 199.594 28.2585 199.06 28.9915C198.526 29.7244 197.795 30.2727 196.869 30.6364C195.943 31 194.892 31.1818 193.716 31.1818ZM193.741 23.392C194.395 23.392 194.952 23.233 195.412 22.9148C195.872 22.5966 196.222 22.1392 196.46 21.5426C196.699 20.946 196.818 20.2301 196.818 19.3949C196.818 18.571 196.699 17.8494 196.46 17.2301C196.227 16.6108 195.881 16.1307 195.42 15.7898C194.966 15.4432 194.406 15.2699 193.741 15.2699C193.054 15.2699 192.48 15.4489 192.02 15.8068C191.56 16.1648 191.213 16.6562 190.98 17.2812C190.747 17.9006 190.631 18.6051 190.631 19.3949C190.631 20.196 190.747 20.8977 190.98 21.5C191.219 22.0966 191.568 22.5625 192.028 22.8977C192.494 23.2273 193.065 23.392 193.741 23.392Z" fill="#1053D4"/>
<path d="M70.7216 36.228L69.3743 36.4666C69.3179 36.2943 69.2285 36.1302 69.1058 35.9744C68.9865 35.8187 68.8241 35.6911 68.6186 35.5916C68.4131 35.4922 68.1563 35.4425 67.848 35.4425C67.4271 35.4425 67.0758 35.5369 66.794 35.7259C66.5123 35.9115 66.3714 36.1518 66.3714 36.4467C66.3714 36.7019 66.4659 36.9074 66.6548 37.0632C66.8438 37.219 67.1487 37.3466 67.5696 37.446L68.7827 37.7244C69.4853 37.8868 70.009 38.1371 70.3537 38.4751C70.6984 38.8132 70.8707 39.2524 70.8707 39.7926C70.8707 40.25 70.7382 40.6577 70.473 41.0156C70.2112 41.3703 69.8449 41.6487 69.3743 41.8509C68.907 42.053 68.3651 42.1541 67.7486 42.1541C66.8935 42.1541 66.1958 41.9718 65.6555 41.6072C65.1153 41.2393 64.7839 40.7173 64.6612 40.0412L66.098 39.8224C66.1875 40.197 66.3714 40.4804 66.6499 40.6726C66.9283 40.8615 67.2912 40.956 67.7386 40.956C68.2259 40.956 68.6153 40.8549 68.907 40.6527C69.1986 40.4472 69.3445 40.197 69.3445 39.902C69.3445 39.6634 69.255 39.4628 69.076 39.3004C68.9003 39.138 68.6302 39.0154 68.2656 38.9325L66.973 38.6491C66.2604 38.4867 65.7334 38.2282 65.392 37.8736C65.054 37.5189 64.8849 37.0698 64.8849 36.5263C64.8849 36.0755 65.0109 35.6811 65.2628 35.343C65.5147 35.005 65.8627 34.7415 66.3068 34.5526C66.7509 34.3603 67.2597 34.2642 67.8331 34.2642C68.6584 34.2642 69.308 34.4432 69.782 34.8011C70.2559 35.1558 70.5691 35.6314 70.7216 36.228ZM76.0698 34.3636V35.5568H71.8986V34.3636H76.0698ZM73.0172 32.5341H74.5037V39.7578C74.5037 40.0462 74.5468 40.2633 74.633 40.4091C74.7192 40.5516 74.8302 40.6494 74.9661 40.7024C75.1053 40.7521 75.2561 40.777 75.4185 40.777C75.5378 40.777 75.6422 40.7687 75.7317 40.7521C75.8212 40.7356 75.8908 40.7223 75.9405 40.7124L76.209 41.9403C76.1228 41.9735 76.0002 42.0066 75.8411 42.0398C75.682 42.0762 75.4831 42.0961 75.2445 42.0994C74.8534 42.1061 74.4888 42.0365 74.1507 41.8906C73.8127 41.7448 73.5392 41.5194 73.3304 41.2145C73.1216 40.9096 73.0172 40.5268 73.0172 40.0661V32.5341ZM80.8487 42.1541C80.1328 42.1541 79.508 41.9901 78.9744 41.6619C78.4408 41.3338 78.0265 40.8748 77.7315 40.2848C77.4366 39.6948 77.2891 39.0054 77.2891 38.2166C77.2891 37.4245 77.4366 36.7318 77.7315 36.1385C78.0265 35.5452 78.4408 35.0845 78.9744 34.7564C79.508 34.4283 80.1328 34.2642 80.8487 34.2642C81.5646 34.2642 82.1894 34.4283 82.723 34.7564C83.2566 35.0845 83.6709 35.5452 83.9659 36.1385C84.2609 36.7318 84.4084 37.4245 84.4084 38.2166C84.4084 39.0054 84.2609 39.6948 83.9659 40.2848C83.6709 40.8748 83.2566 41.3338 82.723 41.6619C82.1894 41.9901 81.5646 42.1541 80.8487 42.1541ZM80.8537 40.9062C81.3177 40.9062 81.7022 40.7836 82.0071 40.5384C82.312 40.2931 82.5374 39.9666 82.6832 39.5589C82.8324 39.1513 82.907 38.7022 82.907 38.2116C82.907 37.7244 82.8324 37.277 82.6832 36.8693C82.5374 36.4583 82.312 36.1286 82.0071 35.88C81.7022 35.6314 81.3177 35.5071 80.8537 35.5071C80.3864 35.5071 79.9986 35.6314 79.6903 35.88C79.3854 36.1286 79.1584 36.4583 79.0092 36.8693C78.8634 37.277 78.7905 37.7244 78.7905 38.2116C78.7905 38.7022 78.8634 39.1513 79.0092 39.5589C79.1584 39.9666 79.3854 40.2931 79.6903 40.5384C79.9986 40.7836 80.3864 40.9062 80.8537 40.9062ZM86.0676 42V34.3636H87.5044V35.5767H87.584C87.7232 35.1657 87.9685 34.8426 88.3198 34.6072C88.6744 34.3686 89.0755 34.2493 89.5229 34.2493C89.6157 34.2493 89.7251 34.2526 89.851 34.2592C89.9803 34.2659 90.0814 34.2741 90.1543 34.2841V35.706C90.0946 35.6894 89.9886 35.6712 89.8361 35.6513C89.6837 35.6281 89.5312 35.6165 89.3787 35.6165C89.0274 35.6165 88.7142 35.6911 88.4391 35.8402C88.1673 35.986 87.9519 36.1899 87.7928 36.4517C87.6337 36.7102 87.5542 37.0052 87.5542 37.3366V42H86.0676ZM94.4585 42.1541C93.7061 42.1541 93.0581 41.9934 92.5146 41.6719C91.9743 41.3471 91.5567 40.8913 91.2617 40.3047C90.9701 39.7147 90.8242 39.0237 90.8242 38.2315C90.8242 37.4493 90.9701 36.7599 91.2617 36.1634C91.5567 35.5668 91.9677 35.1011 92.4947 34.7663C93.025 34.4316 93.6448 34.2642 94.354 34.2642C94.7849 34.2642 95.2025 34.3355 95.6069 34.478C96.0112 34.6205 96.3742 34.8442 96.6957 35.1491C97.0172 35.4541 97.2707 35.8501 97.4563 36.3374C97.6419 36.8213 97.7347 37.4096 97.7347 38.1023V38.6293H91.6644V37.5156H96.2781C96.2781 37.1245 96.1985 36.7782 96.0394 36.4766C95.8803 36.1716 95.6566 35.9313 95.3683 35.7557C95.0832 35.58 94.7485 35.4922 94.364 35.4922C93.9464 35.4922 93.5818 35.5949 93.2702 35.8004C92.962 36.0026 92.7234 36.2678 92.5543 36.5959C92.3886 36.9207 92.3058 37.2737 92.3058 37.6548V38.5249C92.3058 39.0353 92.3952 39.4695 92.5742 39.8274C92.7565 40.1854 93.0101 40.4588 93.3349 40.6477C93.6597 40.8333 94.0392 40.9261 94.4734 40.9261C94.7551 40.9261 95.012 40.8864 95.244 40.8068C95.476 40.724 95.6765 40.6013 95.8455 40.4389C96.0146 40.2765 96.1438 40.076 96.2333 39.8374L97.6403 40.0909C97.5276 40.5052 97.3254 40.8681 97.0337 41.1797C96.7454 41.4879 96.3825 41.7282 95.945 41.9006C95.5108 42.0696 95.0153 42.1541 94.4585 42.1541ZM100.363 42.0945C100.092 42.0945 99.858 41.9983 99.6625 41.8061C99.4669 41.6106 99.3691 41.3752 99.3691 41.1001C99.3691 40.8284 99.4669 40.5964 99.6625 40.4041C99.858 40.2086 100.092 40.1108 100.363 40.1108C100.635 40.1108 100.869 40.2086 101.064 40.4041C101.26 40.5964 101.358 40.8284 101.358 41.1001C101.358 41.2824 101.311 41.4498 101.219 41.6023C101.129 41.7514 101.01 41.8707 100.861 41.9602C100.711 42.0497 100.546 42.0945 100.363 42.0945Z" fill="#BCBCBC"/>
<rect width="50" height="50" rx="25" fill="#3C50E0"/>
<g clip-path="url(#clip0_1002_12)">
<path d="M27.4094 25.6875H30.8125C32.2712 25.6875 33.6701 25.108 34.7016 24.0766C35.733 23.0451 36.3125 21.6462 36.3125 20.1875C36.3125 18.7288 35.733 17.3299 34.7016 16.2984C33.6701 15.267 32.2712 14.6875 30.8125 14.6875H20.8438C20.2967 14.6875 19.7721 14.9048 19.3853 15.2916C18.9985 15.6784 18.7812 16.203 18.7812 16.75C18.7812 17.297 18.9985 17.8216 19.3853 18.2084C19.7721 18.5952 20.2967 18.8125 20.8438 18.8125H22.9062C23.4533 18.8125 23.9779 18.5952 24.3647 18.2084C24.7515 17.8216 24.9688 17.297 24.9688 16.75V16.0625H30.8125C31.9065 16.0625 32.9557 16.4971 33.7293 17.2707C34.5029 18.0443 34.9375 19.0935 34.9375 20.1875C34.9375 21.2815 34.5029 22.3307 33.7293 23.1043C32.9557 23.8779 31.9065 24.3125 30.8125 24.3125H27.9044C28.0097 23.8618 28.0628 23.4004 28.0625 22.9375V21.5625C28.0625 21.3802 27.9901 21.2053 27.8611 21.0764C27.7322 20.9474 27.5573 20.875 27.375 20.875H16.375C16.1927 20.875 16.0178 20.9474 15.8889 21.0764C15.7599 21.2053 15.6875 21.3802 15.6875 21.5625V22.9375C15.6928 23.9092 15.9284 24.8658 16.375 25.7287C15.9371 26.3125 15.6963 27.0204 15.6875 27.75C15.6875 28.6617 16.0497 29.536 16.6943 30.1807C17.0135 30.4999 17.3925 30.7531 17.8095 30.9258C18.2266 31.0986 18.6736 31.1875 19.125 31.1875H21.1875V31.875H19.8125C19.3567 31.875 18.9195 32.0561 18.5972 32.3784C18.2748 32.7007 18.0938 33.1379 18.0938 33.5938C18.0938 34.0496 18.2748 34.4868 18.5972 34.8091C18.9195 35.1314 19.3567 35.3125 19.8125 35.3125H23.9375C24.2716 35.3115 24.5982 35.2135 24.8777 35.0304C25.1571 34.8473 25.3774 34.5871 25.5119 34.2812H29.7744C30.2103 34.2766 30.6353 34.1444 30.9971 33.9012C31.3588 33.6579 31.6415 33.3142 31.8103 32.9122C31.9792 32.5103 32.0267 32.0678 31.9471 31.6391C31.8676 31.2105 31.6643 30.8146 31.3625 30.5C31.1578 30.2843 30.9115 30.1122 30.6386 29.9941C30.3657 29.8759 30.0718 29.8142 29.7744 29.8125H22.5625V29.0838C23.5898 28.9676 24.5716 28.596 25.4183 28.0027C26.265 27.4094 26.9495 26.6135 27.4094 25.6875ZM23.5938 16.75C23.5938 16.9323 23.5213 17.1072 23.3924 17.2361C23.2635 17.3651 23.0886 17.4375 22.9062 17.4375H20.8438C20.6614 17.4375 20.4865 17.3651 20.3576 17.2361C20.2287 17.1072 20.1562 16.9323 20.1562 16.75C20.1562 16.5677 20.2287 16.3928 20.3576 16.2639C20.4865 16.1349 20.6614 16.0625 20.8438 16.0625H23.5938V16.75ZM19.125 29.8125C18.7886 29.8117 18.4575 29.7286 18.1606 29.5706C17.8637 29.4125 17.6099 29.1842 17.4215 28.9056C17.233 28.6269 17.1156 28.3064 17.0794 27.972C17.0432 27.6376 17.0893 27.2994 17.2138 26.9869C18.2245 28.1645 19.6449 28.914 21.1875 29.0838V29.8125H19.125ZM23.9375 33.9375H19.8125C19.7213 33.9375 19.6339 33.9013 19.5694 33.8368C19.505 33.7724 19.4688 33.6849 19.4688 33.5938C19.4688 33.5026 19.505 33.4151 19.5694 33.3507C19.6339 33.2862 19.7213 33.25 19.8125 33.25H23.9375C24.0287 33.25 24.1161 33.2862 24.1806 33.3507C24.245 33.4151 24.2812 33.5026 24.2812 33.5938C24.2812 33.6849 24.245 33.7724 24.1806 33.8368C24.1161 33.9013 24.0287 33.9375 23.9375 33.9375ZM29.7744 31.1875C29.8873 31.1863 29.9992 31.2082 30.1033 31.2519C30.2073 31.2957 30.3013 31.3603 30.3794 31.4419C30.4603 31.5204 30.5245 31.6145 30.5682 31.7185C30.6119 31.8224 30.6342 31.9341 30.6337 32.0469C30.6337 32.2748 30.5432 32.4934 30.382 32.6545C30.2209 32.8157 30.0023 32.9062 29.7744 32.9062H25.5119C25.3774 32.6004 25.1571 32.3402 24.8777 32.1571C24.5982 31.974 24.2716 31.876 23.9375 31.875H22.5625V31.1875H29.7744ZM21.875 27.75C20.5986 27.75 19.3746 27.243 18.472 26.3405C17.5695 25.4379 17.0625 24.2139 17.0625 22.9375V22.25H26.6875V22.9375C26.6875 24.2139 26.1805 25.4379 25.278 26.3405C24.3754 27.243 23.1514 27.75 21.875 27.75Z" fill="white"/>
<path d="M21.1875 22.9375H19.125V24.3125H21.1875V22.9375Z" fill="white"/>
<path d="M24.625 22.9375H22.5625V24.3125H24.625V22.9375Z" fill="white"/>
</g>
<defs>
<clipPath id="clip0_1002_12">
<rect width="22" height="22" fill="white" transform="translate(15 14)"/>
</clipPath>
</defs>
</svg>
